<?xml version="1.0" encoding="utf-8"?>
<!-- Generator: Adobe Illustrator 19.0.0, SVG Export Plug-In . SVG Version: 6.00 Build 0)  -->
<svg version="1.1" id="Layer_1" xmlns="http://www.w3.org/2000/svg" xmlns:xlink="http://www.w3.org/1999/xlink" x="0px" y="0px"
	 viewBox="-49 216.8 512.4 313" style="enable-background:new -49 216.8 512.4 313;" xml:space="preserve">
<style type="text/css">
	.st0{fill:#00B269;}
	.st1{fill:#A16E3F;}
	.st2{fill:#E6BE8A;}
	.st3{fill:#C9A07C;}
</style>
<g>
	<rect x="-17" y="224.8" class="st0" width="448" height="277.8"/>
</g>
<g>
	<path class="st1" d="M423.2,216.8h-432c-8.8,0-16,6.1-16,13.6v265.4c0,3.8,3.6,6.8,8,6.8s8-3,8-6.8V230.4h432v265.4
		c0,3.8,3.6,6.8,8,6.8s8-3,8-6.8V230.4C439.2,222.9,432,216.8,423.2,216.8z"/>
</g>
<g>
	<path class="st2" d="M455.4,529.8H-41c-4.4,0-8-3.6-8-8v-16c0-4.4,3.6-8,8-8h496.4c4.4,0,8,3.6,8,8v16
		C463.4,526.2,459.9,529.8,455.4,529.8z"/>
</g>
<g>
	<path class="st1" d="M87.2,497.8v-16c0-4.4-3.6-8-8-8h-48c-4.4,0-8,3.6-8,8v16"/>
</g>
<g>
	<path class="st3" d="M-49,513.8v8c0,4.4,3.6,8,8,8h496.4c4.4,0,8-3.6,8-8v-8H-49z"/>
</g>
</svg>
