<?xml version="1.0" encoding="utf-8"?>
<!-- Generator: Adobe Illustrator 19.0.0, SVG Export Plug-In . SVG Version: 6.00 Build 0)  -->
<svg version="1.1" id="Layer_1" xmlns="http://www.w3.org/2000/svg" xmlns:xlink="http://www.w3.org/1999/xlink" x="0px" y="0px"
	 viewBox="0 0 817 465.5" style="enable-background:new 0 0 817 465.5;" xml:space="preserve">
<style type="text/css">
	.st0{fill:#EF9A6A;}
	.st1{fill:url(#SVGID_1_);}
	.st2{opacity:0.5;fill:#4C7F60;}
	.st3{opacity:0.4;fill:#70578E;}
	.st4{fill:#F9C470;}
	.st5{fill:#F6F2E7;}
	.st6{opacity:0.6;fill:#4C7F60;}
	.st7{fill:#FFFFFF;}
	.st8{fill:#BCBEC0;}
	.st9{fill:#BA652F;}
	.st10{opacity:0.4;}
	.st11{fill:#70578E;}
	.st12{fill:#FFDC97;}
</style>
<g>
	<path class="st0" d="M779.7,436.4c0,1.1-0.9,2-2,2H24.6c-1.1,0-2-0.9-2-2V2c0-1.1,0.9-2,2-2h753.2c1.1,0,2,0.9,2,2V436.4z"/>
</g>
<radialGradient id="SVGID_1_" cx="2515.8381" cy="-2424.8452" r="521.8472" gradientTransform="matrix(1.7398 0 0 1.7398 -4341.7646 4238.2295)" gradientUnits="userSpaceOnUse">
	<stop  offset="0" style="stop-color:#5A8447"/>
	<stop  offset="1" style="stop-color:#385A3F"/>
</radialGradient>
<rect x="45" y="22.4" class="st1" width="712.3" height="393.6"/>
<path class="st2" d="M749.5,22.4H45v385.1v8.5h7.9h704.5V30.9v-8.5H749.5z M749.5,407.5H52.8V30.9h696.6V407.5z"/>
<g>
	<path class="st3" d="M804.4,439.2L736.7,320l11.1,4.4l-3.5-13L499.9,438.7L804.4,439.2z M607.3,412.4l114.6-65.1l37.1,65.3
		L607.3,412.4z"/>
	<g>
		<path class="st4" d="M817,439.2l-72.6-127.9L520.1,438.7L817,439.2z M734.4,347.3l37.1,65.3H619.8L734.4,347.3z"/>
		<polygon class="st5" points="520.1,438.7 744.3,311.3 749.2,320 737.1,326.8 741.2,334 738.3,335.6 734.2,328.5 723.7,334.5 
			727.7,341.6 724.8,343.3 720.7,336.1 710.2,342.1 714.2,349.3 711.3,350.9 707.3,343.8 696.7,349.8 700.8,356.9 697.9,358.6 
			693.8,351.4 683.3,357.4 687.3,364.6 684.4,366.2 680.3,359.1 669.8,365.1 673.9,372.2 670.9,373.9 666.9,366.7 656.3,372.7 
			660.4,379.9 657.5,381.5 653.4,374.4 642.9,380.4 646.9,387.5 644,389.2 639.9,382 629.4,388 633.5,395.2 630.5,396.8 
			626.5,389.7 615.9,395.7 620,402.8 617.1,404.5 613,397.3 602.5,403.3 606.5,410.5 603.6,412.1 599.5,405 589,411 593.1,418.1 
			590.1,419.8 586.1,412.6 575.5,418.6 579.6,425.8 576.7,427.4 572.6,420.3 562.1,426.3 566.1,433.4 563.2,435.1 559.1,427.9 
			540.2,438.7 		"/>
	</g>
</g>
<g>
	<polygon class="st6" points="490.7,426.2 483.8,423.8 445.8,423.8 440.6,428.1 442,434.6 445.8,438.5 483.8,438.5 491.5,438.5 	"/>
	<g>
		<polygon class="st7" points="471.2,438.5 433.2,438.5 429.5,434.6 428,428.1 433.2,423.8 471.2,423.8 		"/>
		<polygon class="st8" points="478.9,438.5 471.2,438.5 471.2,423.8 478.1,426.2 		"/>
	</g>
</g>
<rect y="438.4" class="st9" width="802.3" height="27.1"/>
<g class="st10">
	<path class="st11" d="M724,432c0,1.1-0.9,2-2,2h-53c-1.1,0-2-0.9-2-2v-4.5c0-1.1,0.9-2,2-2h53c1.1,0,2,0.9,2,2V432z"/>
</g>
<g>
	<path class="st12" d="M721.5,428.7c0,1.1-0.9,2-2,2h-53c-1.1,0-2-0.9-2-2v-4.5c0-1.1,0.9-2,2-2h53c1.1,0,2,0.9,2,2V428.7z"/>
</g>
</svg>
